<svg xmlns="http://www.w3.org/2000/svg" viewBox="0 0 577.121 612.366">
    <defs>
        <linearGradient id="linear-gradient" x1="0.5" x2="0.5" y2="1" gradientUnits="objectBoundingBox">
            <stop offset="0" stop-color="#0ea5e9"/>
            <stop offset="1" stop-color="#0284c7"/>
        </linearGradient>
        <linearGradient id="linear-gradient-2" x1="0.155" y1="0.077" x2="0.718" y2="0.832" gradientUnits="objectBoundingBox">
            <stop offset="0" stop-color="#e47468"/>
            <stop offset="1" stop-color="#f0a291"/>
        </linearGradient>
        <linearGradient id="linear-gradient-3" x1="0.926" y1="0.914" x2="0.25" y2="0.22" gradientUnits="objectBoundingBox">
            <stop offset="0" stop-color="#ed9888"/>
            <stop offset="1" stop-color="#f3ac9a"/>
        </linearGradient>
        <clipPath id="clip-path">
            <path id="thyin-lines22-graphic-design-trends-2022-u-path-173" d="M48.515,44.428l-23.68,8.211L0,8.559C-.263,8.125,23.573,0,23.573,0Z" fill="#191919"/>
        </clipPath>
        <linearGradient id="linear-gradient-4" x1="0.183" y1="-0.032" x2="0.838" y2="1.011" gradientUnits="objectBoundingBox">
            <stop offset="0" stop-color="#0e1420" stop-opacity="0.2"/>
            <stop offset="0.53" stop-color="#151d2e" stop-opacity="0"/>
            <stop offset="1" stop-color="#0e1420" stop-opacity="0.2"/>
        </linearGradient>
        <linearGradient id="linear-gradient-6" x1="0.26" y1="0.034" x2="0.789" y2="0.9" gradientUnits="objectBoundingBox">
            <stop offset="0" stop-color="#f0a291"/>
            <stop offset="1" stop-color="#f3ac9a"/>
        </linearGradient>
    </defs>
    <g id="Fill" transform="translate(-675.956 -264)">
        <g id="_1" data-name="1" transform="translate(530.765 468.763)">
            <g id="Ellipse_99" data-name="Ellipse 99" transform="translate(566.312 376.735) rotate(120)" fill="#0ea5e9" stroke="#0ea5e9" stroke-width="2">
                <ellipse cx="15.26" cy="35.777" rx="15.26" ry="35.777" stroke="none"/>
                <ellipse cx="15.26" cy="35.777" rx="14.26" ry="34.777" fill="none"/>
            </g>
            <g id="Ellipse_97" data-name="Ellipse 97" transform="translate(512.673 336.522)" fill="none" stroke="#3f3f46" stroke-width="2">
                <ellipse cx="15.025" cy="35.541" rx="15.025" ry="35.541" stroke="none"/>
                <ellipse cx="15.025" cy="35.541" rx="14.025" ry="34.541" fill="none"/>
            </g>
            <g id="Ellipse_98" data-name="Ellipse 98" transform="translate(551.051 340.958) rotate(60)" fill="none" stroke="#3f3f46" stroke-width="2">
                <ellipse cx="15.26" cy="35.777" rx="15.26" ry="35.777" stroke="none"/>
                <ellipse cx="15.26" cy="35.777" rx="14.26" ry="34.777" fill="none"/>
            </g>
            <ellipse id="Ellipse_100" data-name="Ellipse 100" cx="6.357" cy="6.068" rx="6.357" ry="6.068" transform="translate(521.341 365.994)" fill="#fff"/>
        </g>
        <g id="_2" data-name="2" transform="translate(9.102 61.418)">
            <path id="Path_180" data-name="Path 180" d="M-13112.093-1702.218v30.324s-1.629,8.946-31.51,9.148-32.934-9.148-32.934-9.148v-28.766" transform="translate(14340.737 2181.279)" fill="#64748b" stroke="#64748b" stroke-width="2"/>
            <path id="Path_183" data-name="Path 183" d="M-13159.945-1748.341l41.807,16.888-40.082,20.9-40.107-20.077Z" transform="translate(14353.974 2205.923)" fill="#3f3f46" stroke="#3f3f46" stroke-linecap="round" stroke-linejoin="round" stroke-width="4"/>
            <path id="Path_181" data-name="Path 181" d="M-13075.452-1670.125V-1713.2h-40.443" transform="translate(14314.413 2188.756)" fill="none" stroke="#fbbf24" stroke-linecap="round" stroke-linejoin="round" stroke-width="3"/>
            <path id="Path_182" data-name="Path 182" d="M-13051.274-1631.469c-.309,1.435-.771,14.352-.771,14.352h9.471l-.925-14.352S-13047.149-1639.305-13051.274-1631.469Z" transform="translate(14286.549 2154.489)" fill="#fbbf24"/>
        </g>
        <g id="_3" data-name="3" transform="translate(165.152 -66.847)">
            <path id="Path_188" data-name="Path 188" d="M-12907.32-1599.966l11.8-21.137s13.24-4.865,9.65,9.093C-12904.211-1601.163-12907.32-1599.966-12907.32-1599.966Z" transform="translate(13851.313 2046.563)" fill="#fbbf24" stroke="#fbbf24" stroke-width="2"/>
            <path id="Path_184" data-name="Path 184" d="M-12804.132-1765.648s-47.139-5.257-73.425,58.88c13.844,14.369,14.369,14.72,14.369,14.72s55.2-21.554,59.056-67.641C-12804.133-1764.543-12804.132-1765.648-12804.132-1765.648Z" transform="translate(13835.892 2125)" fill="#ec4899" stroke="#ec4899" stroke-width="2"/>
            <g id="Ellipse_101" data-name="Ellipse 101" transform="translate(988.838 380.357)" fill="#fff" stroke="#fbbf24" stroke-width="4">
                <circle cx="10.836" cy="10.836" r="10.836" stroke="none"/>
                <circle cx="10.836" cy="10.836" r="8.836" fill="none"/>
            </g>
            <path id="Path_185" data-name="Path 185" d="M-12852.192-1673.806l.829,17.213-14,14.413-4.977-19.909-20.427-20.531-19.8-4.458,14.1-14.413,17.006.519" transform="translate(13854 2089.753)" fill="#ec4899"/>
            <path id="Path_186" data-name="Path 186" d="M-12842.449-1662.45l-17.368,17.61" transform="translate(13827.459 2068.34)" fill="none" stroke="#fff" stroke-linecap="round" stroke-width="4"/>
        </g>
        <g id="_4" data-name="4" transform="translate(589.021 303.084)">
            <path id="Path_190" data-name="Path 190" d="M-13045.368-1463.207l-31.771-14.623-31.639,14.623v30.974s-.931,8.242,8.508,16.484c23.122,17.984,23.131,17.946,23.131,17.946l25.789-19.94s5.982-4.386,5.982-14.49Z" transform="translate(13257 1858)" fill="#3f3f46"/>
            <path id="Path_191" data-name="Path 191" d="M-13045.368-1463.207l-31.771-14.623-31.639,14.623v30.974s-.931,8.242,8.508,16.484c23.122,17.984,23.131,17.946,23.131,17.946l25.789-19.94s5.982-4.386,5.982-14.49Z" transform="translate(13280 1861)" fill="#2ed573" stroke="#3f3f46" stroke-width="2"/>
            <path id="Path_189" data-name="Path 189" d="M-13081.26-1431.084l9.307,8.616,18.783-18.611" transform="translate(13270.129 1854.957)" fill="none" stroke="#fff" stroke-linecap="round" stroke-width="6"/>
        </g>
        <g id="thyin-lines22-graphic-design-trends-2022-u-sabzlearn-character" transform="translate(491.8 49.154)">
            <g id="thyin-lines22-graphic-design-trends-2022-u-right-foot" transform="translate(364.39 440.401)">
                <g id="thyin-lines22-graphic-design-trends-2022-u-eynnkrv2goi81" transform="translate(6.193 98.582)">
                    <path id="thyin-lines22-graphic-design-trends-2022-u-path-153" d="M333.452,353.225s6.276-2.725,10.177,1.28c0,0,1.486,1.879,3.1,1.032,2.57-.888,4.449.1,6.193,4.758,4.129,5.161,14.636,17.95,3.282,31.368-5.336,1.827-11.54,1.662-12.572-2.467-.568-2.673-1.652-3.468-4.129-3.1-2.064.31-5.161,3.1-12.386-9.29s6.335-23.581,6.335-23.581Z" transform="translate(-165.609 -263.066)" fill="#fff" stroke="#040505" stroke-miterlimit="10" stroke-width="0.978"/>
                    <path id="thyin-lines22-graphic-design-trends-2022-u-path-154" d="M245.436,314.669s-27.869,29.933,60.9,79.478c20.644,12.386,81.542,32,81.542,32s12.386,9.29,23.224-5.677c5.161-9.29,9.806-29.417-3.613-38.707-9.29-5.161-21.191-9.847-31.513-18.1-11.911-8.03-46.448-29.933-71.22-38.191-22.677-11.313-38.748-32.07-59.319-10.8Z" transform="translate(-241.289 -305.468)" fill="#0488cb"/>
                    <g id="thyin-lines22-graphic-design-trends-2022-u-eynnkrv2goi84" transform="translate(185.37 89.387)">
                        <path id="thyin-lines22-graphic-design-trends-2022-u-path-155" d="M344.854,353.231s7.225-2.064,10.322,2.064a212.922,212.922,0,0,1,21.676,44.384c7.225,21.676,3.1,29.933-6.193,30.965C353.742,432.523,344.854,353.231,344.854,353.231Z" transform="translate(-333.13 -352.097)" fill="#5f6b75"/>
                        <path id="thyin-lines22-graphic-design-trends-2022-u-path-156" d="M344.211,354.263s-7.225,1.032-5.161,6.193c1.032,3.1,9.29,7.225,6.193,21.676-2.064,5.161-7.225,7.225-1.032,15.483,2.064,2.064,6.193,7.225,12.386,19.611,4.129,9.29,10.322,18.579,23.74,12.386,2.064-1.032,6.193-5.161-1.032-27.869-8.257-22.708-15.483-37.158-23.74-47.48-2.065-2.063-4.128-2.063-11.354,0Z" transform="translate(-338.679 -352.097)" fill="#0a0a0a"/>
                        <line id="thyin-lines22-graphic-design-trends-2022-u-line-168" y1="4.129" x2="6.193" transform="translate(16.37 59.452)" fill="none" stroke="#fff" stroke-linecap="round" stroke-miterlimit="10" stroke-width="1.087"/>
                        <line id="thyin-lines22-graphic-design-trends-2022-u-line-169" y1="5.811" x2="7.679" transform="translate(13.273 51.576)" fill="none" stroke="#fff" stroke-linecap="round" stroke-miterlimit="10" stroke-width="1.087"/>
                        <line id="thyin-lines22-graphic-design-trends-2022-u-line-170" y1="8.257" x2="9.29" transform="translate(9.144 45.001)" fill="none" stroke="#fff" stroke-linecap="round" stroke-miterlimit="10" stroke-width="1.087"/>
                        <path id="thyin-lines22-graphic-design-trends-2022-u-path-157" d="M344.854,352.491s4.645-2.58,15.421,18.27c5.3,9.909,22.254,43.145,16.061,58.628" transform="translate(-333.13 -352.39)" fill="none" stroke="#fff" stroke-linecap="round" stroke-linejoin="round" stroke-width="0.544"/>
                    </g>
                </g>
                <g id="thyin-lines22-graphic-design-trends-2022-u-eynnkrv2goi91" transform="translate(0 6.572) rotate(-2.922)">
                    <path id="thyin-lines22-graphic-design-trends-2022-u-path-158" d="M60.223,5.737S21.986,62.315,4.441,98.445c-3.1,6.193-5.274,12.025-4.129,15.483C1.86,118.573,13.144,148.8,56.5,117.839c8.257-9.806,28.971-37.457,28.971-37.457l36.126-55.738S98.414-13.874,60.223,5.737Z" transform="translate(7.378) rotate(3.212)" fill="url(#linear-gradient)"/>
                    <path id="thyin-lines22-graphic-design-trends-2022-u-path-159" d="M50.99,5.994S8.67,66.893,0,90.19C5.532,80.7,53.168,6.387,65.224.255,58.7-.529,55.738.255,50.99,5.994Z" transform="translate(10.277 18.657)" fill="#44bef8"/>
                </g>
                <path id="thyin-lines22-graphic-design-trends-2022-u-eynnkrv2goi94" d="M299.089,263.021s-43.434,64.79-55.263,91.74c-3,9.537-10.177,24.174,29.252,56.533,20.035,14.141,28.075,24.215,109.1,50.99,8.257,2.993,16.721,9.775,27.353-2.064,4.449-5.7,10.848-16.649,3.881-34.64-1.817-4.583-11.736-8.65-21.738-13.841s-23.43-15.483-23.43-15.483-36.322-23.647-65.12-33.5c-17.351,5.078-19.518,6.668-23.647,3.571s3.1-3.1,13.418-3.1,11.117-.475,11.117-.475l19.849-26.362" transform="translate(-234.629 -244.744)" fill="none"/>
            </g>
            <g id="thyin-lines22-graphic-design-trends-2022-u-left-foot" transform="translate(411.006 452.637)">
                <path id="thyin-lines22-graphic-design-trends-2022-u-path-160" d="M277.4,404.214s3.365,4.944.2,6.823-2.756,4.8-1.879,6.131c1.29,2.064,1.094,3.1.33,4.067s-2.539,3.1-1.507,11.354c1.032,7.225-1.3,12.585,15.324,12.018s8.175-7.546,19.529-30.254c1.156-4.878-3-4.79-3-4.79s1.038-5.637-5.078-4.656c-7.225-1.032-23.916-.691-23.916-.691Z" transform="translate(-251.666 -130.126)" fill="#fff" stroke="#040505" stroke-miterlimit="10" stroke-width="0.978"/>
                <g id="thyin-lines22-graphic-design-trends-2022-u-eynnkrv2goi97" transform="translate(0 282.797)">
                    <path id="thyin-lines22-graphic-design-trends-2022-u-path-161" d="M324.679,416.887a21.418,21.418,0,0,1,1.187,13.883c-3.1,9.29-13.418,25.8-33.03,43.352-12.386,11.354-23.276,13.573-30.212,2.663,9.857-16.67,62.055-59.9,62.055-59.9Z" transform="translate(-262.09 -401.484)" fill="#555b5e"/>
                    <path id="thyin-lines22-graphic-design-trends-2022-u-path-162" d="M321.99,410.192a39.624,39.624,0,0,1,3.1,19.611c-2.064,10.322-7.225,20.644-28.9,43.352-17.547,17.547-23.74,16.515-30.965,13.418-4.129-3.1-4.129-7.225,2.064-21.676s10.322-27.869,14.451-35.094c2.064-5.161,9.29-8.257,14.451-2.064,3.1,2.064,8.258,6.193,15.483-6.193C316.829,412.256,319.525,405.781,321.99,410.192Z" transform="translate(-262.343 -408.775)" fill="#0a0a0a"/>
                    <path id="thyin-lines22-graphic-design-trends-2022-u-path-163" d="M324.973,416.316s1.032,19.611-27.353,48c-10.322,10.322-23.224,23.4-34.578,14.967" transform="translate(-261.713 -401.998)" fill="none" stroke="#fff" stroke-linecap="round" stroke-miterlimit="10" stroke-width="0.544"/>
                    <path id="thyin-lines22-graphic-design-trends-2022-u-path-164" d="M266.848,432.12s6.193-1.032,15.483,4.129" transform="translate(-258.293 -387.869)" fill="none" stroke="#fff" stroke-linecap="round" stroke-miterlimit="10" stroke-width="1.087"/>
                    <path id="thyin-lines22-graphic-design-trends-2022-u-path-165" d="M268.479,427.228s8.257-1.032,18.579,4.129" transform="translate(-256.828 -392.266)" fill="none" stroke="#fff" stroke-linecap="round" stroke-miterlimit="10" stroke-width="1.087"/>
                    <path id="thyin-lines22-graphic-design-trends-2022-u-path-166" d="M269.963,423.342s10.074-1.393,16.009,2.962" transform="translate(-255.494 -395.873)" fill="none" stroke="#fff" stroke-linecap="round" stroke-miterlimit="10" stroke-width="1.087"/>
                </g>
                <path id="thyin-lines22-graphic-design-trends-2022-u-path-167" d="M363.5,305.175s2.064,25.8-18.579,87.735c-5.161,15.483-8.257,19.611-8.257,52.641-1.032,17.547,0,33.03-19.611,67.092-6.4,10.982-7.741,24.256-13.934,25.288s-24.256,3.613-27.353-5.677-.516-25.288-.516-42.835c0-13.418-1.548-11.87-2.581-30.449s-3.1-36.126,9.29-80.51c7.225-26.837,6.193-25.8,7.225-62.963,1.032-4.129-8.257-32,4.129-55.738,24.767,12.386,51.6,28.9,70.187,45.416Z" transform="translate(-253.792 -259.759)" fill="#0ea5e9"/>
                <path id="thyin-lines22-graphic-design-trends-2022-u-eynnkrv2goi105" d="M362.906,314.357s-4.48,37.819-21.882,85.124c-2.064,7.679-3.417,18.8-4.211,38.191-1.239,22.883-1.528,41.411-21.438,74.121-4.645,8.773-6.709,22.192-12.386,22.708-7.225,1.032-19.911,1.28-23.895-1.424-3.819-2.312-6.038-8.9-3.974-29.541,1.032-14.451-1.032-30.129-1.559-42.928s-6.7-37.582,9.816-88.158c5.161-25.8,4.222-24.772,5.213-43.352s-1.084-25.8-2.116-29.933c-.516-2.581,1.2-4.3,3.1,1.032,1.29,3,7.741,13.934,8.257-5.161,0-6.193,3.613-6.709,8.774-11.87s11.354-9.29,16.515-19.611" transform="translate(-253.663 -256.648)" fill="none"/>
                <path id="thyin-lines22-graphic-design-trends-2022-u-path-168" d="M290.628,300.442s-1.032,28.137-9.486,56.4c-6.131,23.327-10.012,40.059-5.078,89.211a192.71,192.71,0,0,1-.392,33.99c-.392,5.532-.919,11.8,5.161,16.732-.785-2.57-3.22-.32-1.249-25.423s-.465-34.919-.465-52.713.268-27.735,6.854-67.6c4.005-20.818,6.245-38.739,4.655-50.6Z" transform="translate(-252.027 -223.346)" fill="#44bef8"/>
            </g>
            <path id="thyin-lines22-graphic-design-trends-2022-u-eynnkrv2goi107" d="M338.862,201.048s-4.129-3.1-20.644,5.161c4.129,4.129,19.611,13.418,19.611,13.418s9.29-12.386,1.033-18.579Z" transform="translate(198.884 139.445)" fill="#0fac50"/>
            <path id="thyin-lines22-graphic-design-trends-2022-u-path-169" d="M319.326,204.787s7.225,9.29,0,17.547c-5.161-1.032-21.9,7.914-25.236,12.056-3.1,2.064-5.729,16.845,24.2,23.038,16.515,2.064,51.609,0,56.77-18.579-6.193-8.257-17.33-13.656-19.611-15.483-5.161-4.129-9.29-10.322-7.225-41.287-8.258-1.032-40.255,5.161-40.255,5.161Z" transform="translate(175.584 122.804)" fill="url(#linear-gradient-2)"/>
            <path id="thyin-lines22-graphic-design-trends-2022-u-eynnkrv2goi109" d="M280.308,205.216c-5.063,6.644-6.571,23.194-1.3,41.366,11.548-2.8,15.85-13.593,15.85-13.593s-3.2-24.676-14.554-27.773Z" transform="translate(159.334 139.815)" fill="#0fac50"/>
            <g id="thyin-lines22-graphic-design-trends-2022-u-right-hand" transform="translate(338.756 290.779) rotate(-4.294)">
                <path id="thyin-lines22-graphic-design-trends-2022-u-path-170" d="M59.822,17.767Q33.139,73.966,8.984,69.658C4.455,68.578.482,63.7.03,51.613c-.275-7.351,1.108-10.7,13.464-17.9h0c4.169-3.137,5.9-4.393,19.842-19.331C41.031,3.241,48.805.726,48.805.726,60.549-3.559,61.07,12.3,59.822,17.767Z" transform="translate(68.652 72.968)" fill="#ed9888"/>
                <path id="thyin-lines22-graphic-design-trends-2022-u-eynnkrv2goi112" d="M67.25,85.836c.462,12.039-12.169,18.049-17.063,19.278-.654-.049-3.093,1.362-8.99-5.989-15.479-19.39-28.6-49.04-33.12-73.55a13.365,13.365,0,0,0-4.885-8.391C-10.429,5.155,23.852-9.564,25.434,8.332c.6,6.791.73,9.611,3.177,14.3,21.18,32.368,27,41.905,29.766,49.531C58.377,73.018,67.606,69.309,67.25,85.836Z" transform="translate(28.918 37.411)" fill="url(#linear-gradient-3)"/>
                <g id="thyin-lines22-graphic-design-trends-2022-u-eynnkrv2goi113" transform="translate(2.842) rotate(2.522)">
                    <path id="thyin-lines22-graphic-design-trends-2022-u-eynnkrv2goi114" d="M17.814,41.281s1.242-11.325-.624-16.613c-.425-3.009-2.653-6.457-4.55-9.307S5.426,5.533,4.286.747C3.529-.58-1.218-.963.3,6.821c2.467,7.6,5.7,13.287,5.5,16.707S2.389,39.665,6,45.149C9.219,49.9,13.219,48.421,14.92,48S17.047,43.365,17.814,41.281Z" transform="translate(34.677 10.093)" fill="#f2ab9a"/>
                    <path id="thyin-lines22-graphic-design-trends-2022-u-eynnkrv2goi115" d="M38.444,30.8s-7.43,9.248-21,6.241C6.73,34.426,3.389,28.873,3.389,28.873s-9.828-15.96,3.99-25.621C10.985.786,23.7-4.531,29.589,8A28.107,28.107,0,0,1,38.444,30.8Z" transform="translate(14.627 26.721)" fill="#f3ac9a"/>
                    <g id="thyin-lines22-graphic-design-trends-2022-u-eynnkrv2goi116">
                        <path id="thyin-lines22-graphic-design-trends-2022-u-path-171" d="M1.3,6.742S-1.07,7.983.591,10.774c1.21,2.241,24.854,45.5,24.854,45.5A2.211,2.211,0,0,0,28.158,57.5c1.966-.521,21.621-7.862,21.621-7.862a2.752,2.752,0,0,0,1.612-3.931L25.455.793S24.708-.69,22.192.4c-2.3.639-20.9,6.342-20.9,6.342Z" transform="translate(0 0.208)" fill="#2c2c2c"/>
                        <path id="thyin-lines22-graphic-design-trends-2022-u-path-172" d="M49.61,47.87,27.831,55.81a1.592,1.592,0,0,1-1.779-.8L.251,9.1A1.523,1.523,0,0,1,.169,7.575,1.68,1.68,0,0,1,1.345,6.79L23.163.048a1.572,1.572,0,0,1,1.779.8L49.914,44.872c.521.963,1.258,2.4-.3,3Z" transform="translate(0.749)" fill="#191919"/>
                        <g id="thyin-lines22-graphic-design-trends-2022-s-g1" clip-path="url(#clip-path)">
                            <g id="thyin-lines22-graphic-design-trends-2022-u-group-399" transform="translate(2.225 1.817)">
                                <g id="thyin-lines22-graphic-design-trends-2022-u-eynnkrv2goi121" transform="translate(7.344 4.461) rotate(-1.088)">
                                    <rect id="thyin-lines22-graphic-design-trends-2022-u-rectangle-363" width="17.813" height="7.081" rx="0.375" transform="translate(15.439 36.957) rotate(-25.472)" fill="#fff"/>
                                    <rect id="thyin-lines22-graphic-design-trends-2022-u-rectangle-364" width="17.813" height="7.081" rx="0.375" transform="translate(7.678 22.188) rotate(-25.472)" fill="#474747"/>
                                    <rect id="thyin-lines22-graphic-design-trends-2022-u-rectangle-365" width="17.813" height="7.081" rx="0.375" transform="translate(0 7.661) rotate(-25.472)" fill="#fbbf24"/>
                                </g>
                            </g>
                        </g>
                        <path id="thyin-lines22-graphic-design-trends-2022-u-path-174" d="M49.671,47.87,27.892,55.81a1.592,1.592,0,0,1-1.779-.8L.209,9.185A1.787,1.787,0,0,1,.126,7.678c.179-.476.795-.694,1.28-.846L23.224.048A1.572,1.572,0,0,1,25,.844L49.975,44.872c.521.963,1.258,2.4-.3,3Z" transform="translate(0.688)" fill="none"/>
                        <path id="thyin-lines22-graphic-design-trends-2022-u-path-175" d="M49.671,47.87,27.892,55.81a1.592,1.592,0,0,1-1.779-.8L.209,9.185A1.787,1.787,0,0,1,.126,7.678c.179-.476.795-.694,1.28-.846L23.224.048A1.572,1.572,0,0,1,25,.844L49.975,44.872c.521.963,1.258,2.4-.3,3Z" transform="translate(0.688)" fill="url(#linear-gradient-4)"/>
                        <path id="thyin-lines22-graphic-design-trends-2022-u-path-176" d="M49.471,47.87,27.693,55.81a1.592,1.592,0,0,1-1.779-.8L.592,10.01A3.307,3.307,0,0,1,.016,8.244,1.346,1.346,0,0,1,.952,7.27L23.025.048a1.572,1.572,0,0,1,1.779.8L49.776,44.872c.521.963,1.258,2.4-.3,3Z" transform="translate(0.887)" fill="none" stroke="#000" stroke-miterlimit="10" stroke-width="0.526"/>
                        <g id="thyin-lines22-graphic-design-trends-2022-u-group-400" transform="translate(7.958 2.013) rotate(-3.652)">
                            <path id="thyin-lines22-graphic-design-trends-2022-u-path-177" d="M11.312,2.752,2.555,5.081A1.651,1.651,0,0,1,.688,4.246L0,3.027,11.4,0l.57.983a1.189,1.189,0,0,1-.658,1.769Z"/>
                            <line id="thyin-lines22-graphic-design-trends-2022-u-line-171" y1="1.474" x2="5.543" transform="translate(3.715 1.73)" fill="none" stroke="#dbdcff" stroke-linecap="round" stroke-miterlimit="10" stroke-width="0.329"/>
                        </g>
                    </g>
                    <path id="thyin-lines22-graphic-design-trends-2022-u-eynnkrv2goi136" d="M4.877,16.557a46.246,46.246,0,0,1,.339-9.475C6.357,3.662,7.075-.709,3.085.1-.139,2.937,0,7.287,0,9.38A74.432,74.432,0,0,0,.74,20.242c2.467,7.5,13.668,12.39,17.816,12.646C8.761,29.5,6.3,21.716,4.877,16.558Z" transform="translate(10.52 26.64)" fill="#f2ab9a"/>
                    <path id="thyin-lines22-graphic-design-trends-2022-u-eynnkrv2goi137" d="M1.457,18.246S-2.87,11.283,3.39,1.406c1.418-2.22,7.765-2.543,6.846,4.55C9.1,10.32,7.873,14.9,8.069,18.177c.462,2.644-4.3,4.3-6.613.07Z" transform="translate(7.281 24.68)" fill="#f3ac9a"/>
                    <path id="thyin-lines22-graphic-design-trends-2022-u-eynnkrv2goi138" d="M2.54,20.686S-2.374,2.25,1.468.048c2.389-.639,4.708,5.17,4.325,11.695C4.672,16.5,2.756,18.111,2.54,20.686Z" transform="translate(5.167 15.213)" fill="#ed9787"/>
                </g>
                <path id="thyin-lines22-graphic-design-trends-2022-u-eynnkrv2goi139" d="M19,0Q4.706,16.628,0,19.681" transform="translate(85.121 84.6)" fill="none"/>
                <path id="thyin-lines22-graphic-design-trends-2022-u-eynnkrv2goi140" d="M0,0A34.088,34.088,0,0,0,4.927,13.75c3.91,6.256,23.463,36.367,25.418,41.06" transform="translate(54.651 49.93)" fill="none"/>
                <path id="thyin-lines22-graphic-design-trends-2022-u-eynnkrv2goi141" d="M0,5.364Q.106-1.4,4.432.364c1.042,3.365-.82,3.971,6.391,13.665,1.522,2.323,6.118,6.32,6.5,18.252.24,2.243.209,5.228.764,8.115" transform="translate(36.907 11.912)" fill="none"/>
                <path id="thyin-lines22-graphic-design-trends-2022-u-eynnkrv2goi142" d="M93.143,117.163c0,.163-13.574,10.213-20.943,9.825-5.43-.9-23.277-14.354-41.266-76.562-.306-.969-1.912-.995-3.186-1.658C20.74,46.35,5.531,39.478,5.148,29.76,2.79,25.917,2.49,24.581,1.623,18.572.984,14.992-1.829,1.279,1.88,0,5.8-.02,4.463,5.212,5.87,9.176" transform="translate(6.847 16.304)" fill="none"/>
            </g>
            <g id="thyin-lines22-graphic-design-trends-2022-u-stomach" transform="translate(422.762 339.895)">
                <path id="thyin-lines22-graphic-design-trends-2022-u-eynnkrv2goi144" d="M346.259,238.713s27.178-15.347,35.435-2.961c1.032,2.064-.265,12.6-49.886,21.541,2.064-3.093,14.451-18.58,14.451-18.58Z" transform="translate(-211.556 -173.109)" fill="#0fac50"/>
                <path id="thyin-lines22-graphic-design-trends-2022-u-path-179" d="M51.519,96.091c-2.355,9.984-8.389,11.862-10.762,11.975-2.446.219-10.125.035-13.583-10.877C20.579,76.76,2.029,32.572,2.029,32.572-4.99,15.755,7.545-9.723,19.126,3.83,44.019,39.61,52.326,93.127,52,96.051Z" transform="translate(114.07 18.963) rotate(4.805)" fill="url(#linear-gradient-2)"/>
                <path id="thyin-lines22-graphic-design-trends-2022-u-eynnkrv2goi145" d="M341.45,204.973s-6.524-8.268-28.2-1.043c-8.257,2.064-17.423,4.84-27.749,1.743,2.064,1.032,9.945,5.281,8.9,27.149-.779,19.867.3,34.739-.084,47.062,4.452-5.046-2.1,2.648-10.417,9.344-10.322,9.29-16.632,19.548-15.035,37.531,4.421-5.372,11.354-13.418,34.062-2.064a68.406,68.406,0,0,1,27.947,21.081c7.225,9.29,13.326,12.141,21.3,17.468,8.258,5.161,12.576,10.433,12.576,15.594,4.192-1.593,11.652-6.413,17.846-20.863,4.129-9.29,13.065-35.566,11.282-70.141,12.386-8.257,15.129-11.115,26.9-19.823,5.483-3.064,13.909-9.992,18.037-4.831-7.225-11.354-11.13-18.884-39.368-41.218-4.129-4.129-6.544-8.34-9.923-13.25-1.863-3.16-3.481-5.66-5.92-7.577s-.734,10.044-15.647,15.181c-8.258,3.1-22.708,6.193-28.9,1.032-1.035-2.065-2.769-5.148,2.392-12.375Z" transform="translate(-268.621 -200.537)" fill="#2ed573"/>
                <path id="thyin-lines22-graphic-design-trends-2022-u-eynnkrv2goi146" d="M311.715,229.4s-9.29,27.342-24.834,36.828c-5.935,4.552-13.047,7.576-14.451,23.988,2.766-1.383,25.691-12.262,64,31.42,4.48,5.212,4.944,5.336,12.056,9.29-6.028-6.689-8.629-11.622-19.446-27.208s-28.664-33.205-36.57-29.52c12.335-14.254,17.279-28.158,19.25-44.8Z" transform="translate(-265.031 -174.456)" fill="#3be280"/>
                <path id="thyin-lines22-graphic-design-trends-2022-u-eynnkrv2goi147" d="M329.159,204.254a47.352,47.352,0,0,1,7.083,10.09c1.579,2.632,5.033,7.013,13.884,15.664s28.5,25.369,22.935,26.958a33.151,33.151,0,0,0-13.479,8.651c3.169-4.738,9.533-13.295-1.006-21.728-9.764-8.485-21.252-17.537-29.416-39.636Z" transform="translate(-214.045 -197.056)" fill="#3be280"/>
                <g id="thyin-lines22-graphic-design-trends-2022-u-group-401" transform="translate(0.582)">
                    <path id="thyin-lines22-graphic-design-trends-2022-u-eynnkrv2goi149" d="M329.279,201.01s4.467,4.5,10.66,14.82c2.794,4.373,5.1,6.753,16.64,15.21s23.925,22.554,27.43,31.46c-6.569-3.252-17.617,5.82-21.559,8.3-7.225,5.161-19.965,14.193-24.094,16.258-3.1-5.161-6.855-18.88-8.919-32.3" transform="translate(-214.519 -199.972)" fill="none"/>
                    <path id="thyin-lines22-graphic-design-trends-2022-u-eynnkrv2goi150" d="M364.423,201.578s12.386-3.1,11.354,1.032-7.019,15.183-30.759,17.248c-4.129,0-23.947,3.4-11.56-16.216-4.129-2.064-6.193-5.161-23.74-1.032-13.418,3.1-17.547,6.193-32,3.1,3.1,2.064,10.856,2.632,8.454,39.115-1.524,22.963.562,29.277-1.357,34.985,3.188-2.232,9.5-8.331,15.475-22.884l3.983-9.835" transform="translate(-261.158 -200.463)" fill="none"/>
                    <path id="thyin-lines22-graphic-design-trends-2022-u-eynnkrv2goi151" d="M305.892,232.739s-3.3,11.053-20.246,26.564c-6.193,5.161-18.579,14.77-16.515,38.511,3.1-4.129,10.322-16.835,42.319,2.777a72.977,72.977,0,0,1,20.644,17.547c4.129,5.161,4.129,6.193,17.547,14.451,12.386,8.257,15.483,12.386,15.483,17.547,4.129-2.064,10.053-5.481,17.361-21.294,2.57-5.532,13.382-33.149,11.039-70.215" transform="translate(-268.901 -171.454)" fill="none"/>
                    <path id="thyin-lines22-graphic-design-trends-2022-u-eynnkrv2goi152" d="M280.714,203.225s-11.031,6.966-3.961,38.263" transform="translate(-263.854 -197.981)" fill="none"/>
                    <path id="thyin-lines22-graphic-design-trends-2022-u-eynnkrv2goi153" d="M366.45,233.422s3.5,2.339-7.857,9.564a33.919,33.919,0,0,1-9.837,3.467" transform="translate(-197.043 -170.811)" fill="none"/>
                </g>
                <g id="thyin-lines22-graphic-design-trends-2022-u-eynnkrv2goi154" transform="matrix(0.998, -0.057, 0.057, 0.998, 98.659, 16.181)">
                    <g id="thyin-lines22-graphic-design-trends-2022-u-eynnkrv2goi155" transform="matrix(0.998, -0.057, 0.057, 0.998, 6.196, 90.769)">
                        <g id="thyin-lines22-graphic-design-trends-2022-u-eynnkrv2goi156" transform="matrix(0.998, -0.057, 0.057, 0.998, 6.069, 58.036)">
                            <path id="thyin-lines22-graphic-design-trends-2022-u-eynnkrv2goi157" d="M27.428,22.163c-.472,3.785-.771,7.222-.968,10.4-.608,9.807-.237,17.1-.962,24.4,0,9.661-2.9,24.163-7.731,21.263-3.757-2.818-1.135-7.452-.981-7.721-.351.124-7.648,2.663-4.82-6.771a84.717,84.717,0,0,1,5.8-12.572c2.273-4.025.96-11.591-1.941-14.451S8.1,34.776,7.135,41.537c0,6.761.96,10.631-3.871,10.631-2.931-.65-3.86-1.93-2.9-10.631s0-17.392,7.731-28.994A10.911,10.911,0,0,0,10.152,7.7c.115-.233,1.485-8.852,10.484-7.566,7.7,1.959,6.75,10,6.75,10s.405,3.163.042,12.028Z" fill="#f3ac9a"/>
                        </g>
                        <path id="thyin-lines22-graphic-design-trends-2022-u-path-178" d="M24.3,69.136c-4.363.516-7.311-2.224-8.855-6.169C15.084,61.821,1.025,17.857.426,15.689-1.962,5.1,6.342,1.214,8.962.477,11.49-.4,20.681-1.2,24.173,9.073c.8,3.561,8.011,39.109,7.976,49.778.5,5.741-2.556,9.621-7.85,10.285Z" transform="translate(27.433) rotate(23.334)" fill="url(#linear-gradient-6)"/>
                        <circle id="thyin-lines22-graphic-design-trends-2022-u-eynnkrv2goi159" cx="8.388" cy="8.388" r="8.388" transform="translate(16.615 60.038)" fill="#f3ac9a"/>
                    </g>
                </g>
            </g>
            <g id="thyin-lines22-graphic-design-trends-2022-u-head">
                <g id="thyin-lines22-graphic-design-trends-2022-u-group-404">
                    <path id="thyin-lines22-graphic-design-trends-2022-u-eynnkrv2goi168" d="M302.816,157.381S289.4,165.639,289.4,194.54c-.962,4.561-4.451,17.6-.258,19.422,2.064,1.032,2.838,2.77,3.354,5.35.206,1.032,3.1,14.451,12.386,17.547,1.548.516,11.354,3.1,25.8-10.322,5.161-5.161,8.257-8.257,10.322-13.418,11.87,5.677,14.967-18.063,10.838-32.514-3.1-9.29-24.256-36.642-49.029-23.224Z" transform="translate(179.033 96.571)" fill="#f3ac9a"/>
                    <g id="thyin-lines22-graphic-design-trends-2022-u-eynnkrv2goi169" transform="translate(463.023 276.406)">
                        <path id="thyin-lines22-graphic-design-trends-2022-u-eynnkrv2goi170" d="M0,7.391Z" transform="translate(6.239 8.223)" fill="none" stroke="#000" stroke-linecap="round" stroke-linejoin="round" stroke-width="1.272"/>
                        <path id="thyin-lines22-graphic-design-trends-2022-u-eynnkrv2goi171" d="M291.924,174.9c-.5,5.9-4.848,12.5-5.392,14.9.053,1.545,3.575,3.574,6.324,5.041C296.368,190.271,295.181,180.3,291.924,174.9Z" transform="translate(-286.532 -160.052)" fill="#f3ac9a"/>
                        <path id="thyin-lines22-graphic-design-trends-2022-u-eynnkrv2goi172" d="M291.924,174.9c-.5,5.9-4.848,12.5-5.392,14.9.053,1.545,3.575,3.574,6.324,5.041" transform="translate(-286.532 -160.052)" fill="#f3ac9a"/>
                    </g>
                    <path id="thyin-lines22-graphic-design-trends-2022-u-eynnkrv2goi173" d="M-2.187,7.471c0-9.087,2.1-16.012,4.274-16.148s4.591,7.3,4.591,16.385S4.578,24.33,2.087,24.173s-4.274-7.615-4.274-16.7Z" transform="translate(472.187 284.651)" fill="none" stroke="#000" stroke-miterlimit="2" stroke-width="1.34"/>
                    <line id="thyin-lines22-graphic-design-trends-2022-u-eynnkrv2goi174" x2="35.294" y2="4.576" transform="translate(479.068 291.18)" fill="#fff" stroke="#0a0a0a" stroke-linecap="round" stroke-miterlimit="10" stroke-width="1.087"/>
                    <path id="thyin-lines22-graphic-design-trends-2022-u-eynnkrv2goi175" d="M296.2,191.1l3.1-3.1" transform="translate(187.194 127.363)" fill="#fff" stroke="#0a0a0a" stroke-linecap="round" stroke-linejoin="round" stroke-width="1.541"/>
                    <path id="thyin-lines22-graphic-design-trends-2022-u-eynnkrv2goi176" d="M30.627,25.479c0,4.8-4.543,4.79-4.543,0,.021-1.978,1.032-3.564,2.272-3.564s2.251,1.586,2.272,3.564Z" transform="translate(445.78 267.105)" fill="#0a0a0a"/>
                </g>
                <g id="thyin-lines22-graphic-design-trends-2022-u-group-405" transform="translate(452.944 214.851)">
                    <path id="thyin-lines22-graphic-design-trends-2022-u-eynnkrv2goi179" d="M310.1,176.176s-28.168-.124-30-22.336c-.093-6.276,1.239-8.165,2.26-8.01s1.032.155,1.579,3.375,2.364,11.849,23.74,15.121a20.025,20.025,0,0,1,2.415,11.849Z" transform="translate(-280.104 -125.401)" fill="#0a0a0a"/>
                    <path id="thyin-lines22-graphic-design-trends-2022-u-eynnkrv2goi180" d="M302.371,185.5s-24.772-7.225-16.515-33.03c3.1-9.29,11.354-20.644,29.933-16.515,10.322,3.1,12.386,8.257,16.515,17.547,2.064,4.129,2.064,6.193,6.193,8.257s9.29,7.225,11.354,19.611c1.032,2.064,4.129,2.064,8.257,2.064,8.225-.054,24.654,6.032,10.322,29.933-6.588,12.209-16.2,8.792-16.708,23.9.143,1.872-2.661,4.391-4.579.458-2.2-8.518,3.607-8.594,5.349-12.28,2.249-4.759-3.674-15.176-10.9-8.983-2.064,2.064-6.193,4.129-5.161-5.161s4.129-18.579-9.29-15.483c-8.258,2.064-15.483,3.1-19.611-1.032-1.032-1.032-4.129-5.161,0-5.161,1.034.008,5.163-1.025-5.159-4.125Z" transform="translate(-276.867 -135.087)" fill="#0a0a0a"/>
                    <path id="thyin-lines22-graphic-design-trends-2022-u-eynnkrv2goi181" d="M320.172,174.721s6.193-17.547-4.129-29.933c4.129,2.064,12.386,14.451,8.257,32Z" transform="translate(-247.916 -126.33)" fill="#0a0a0a"/>
                    <path id="thyin-lines22-graphic-design-trends-2022-u-eynnkrv2goi182" d="M318.218,162.18s13.418-10.322,22.708,0c-4.129-1.032-14.451-2.064-18.579,3.1A30.539,30.539,0,0,1,318.218,162.18Z" transform="translate(-245.962 -114.821)" fill="#0a0a0a"/>
                    <path id="thyin-lines22-graphic-design-trends-2022-u-eynnkrv2goi183" d="M286.945,148.427s9.434-17.361,27.539-10.724c4.129,2.064,8.175,4.046,11.86,17.093a13.862,13.862,0,0,0,8.629,8.928c-2.3-.588-8.763-2.694-13.367-14.554-3.829-9.764-11.6-10.951-18-10.435-6.123.537-10.606,2.581-16.661,9.692Z" transform="translate(-274.07 -134.057)" fill="#e2e2e2"/>
                    <path id="thyin-lines22-graphic-design-trends-2022-u-eynnkrv2goi184" d="M322.553,161.479s9.213-.129,12.836,5.135c1.579,2.064,3.1,5.809,1.032,14.451C337.158,170.512,332.439,164.012,322.553,161.479Z" transform="translate(-242.066 -111.328)" fill="#e2e2e2"/>
                </g>
            </g>
        </g>
        <g id="Group_415" data-name="Group 415" transform="translate(495.956 171.25)">
            <g id="Rectangle_374" data-name="Rectangle 374" transform="translate(183 276)" fill="#0ea5e9" stroke="#3f3f46" stroke-linecap="round" stroke-width="3">
                <rect width="83.937" height="64.442" rx="10" stroke="none"/>
                <rect x="-1.5" y="-1.5" width="86.937" height="67.442" rx="11.5" fill="none"/>
            </g>
            <rect id="Rectangle_378" data-name="Rectangle 378" width="4.849" height="83.937" transform="translate(266.937 325.174) rotate(90)" fill="#fff"/>
            <rect id="Rectangle_375" data-name="Rectangle 375" width="3.332" height="13.538" transform="translate(216.575 342.608)" fill="#3f3f46"/>
            <rect id="Rectangle_376" data-name="Rectangle 376" width="3.332" height="13.538" transform="translate(230.03 342.608)" fill="#3f3f46"/>
            <g id="Rectangle_377" data-name="Rectangle 377" transform="translate(245.817 354.168) rotate(90)" fill="#3f3f46" stroke="#3f3f46" stroke-linecap="round" stroke-linejoin="round" stroke-width="1">
                <rect width="3.332" height="41.698" rx="1.666" stroke="none"/>
                <rect x="0.5" y="0.5" width="2.332" height="40.698" rx="1.166" fill="none"/>
            </g>
        </g>
    </g>
</svg>
