<svg xmlns="http://www.w3.org/2000/svg" width="34" height="34" viewBox="0 0 34 34">
							<path d="M9.63,34C3.869,34,0,29.959,0,23.943V10.057C0,4.041,3.869,0,9.63,0H24.369C30.129,0,34,4.041,34,10.057V23.943C34,29.959,30.129,34,24.367,34ZM2.551,10.057V23.943c0,4.561,2.779,7.508,7.079,7.508H24.367c4.3,0,7.084-2.947,7.084-7.508V10.057c0-4.559-2.78-7.506-7.082-7.506H9.63C5.329,2.551,2.551,5.5,2.551,10.057ZM22.11,21.527l-5.765-3.439a1.283,1.283,0,0,1-.621-1.1V9.578a1.275,1.275,0,1,1,2.549,0v6.691l5.145,3.065a1.276,1.276,0,0,1-.655,2.372A1.3,1.3,0,0,1,22.11,21.527Z" fill="#2ed573"></path>
						</svg>