<svg xmlns="http://www.w3.org/2000/svg" width="30.891" height="35.833" viewBox="0 0 30.891 35.833">
							<path d="M8.745,35.833C3.35,35.833,0,32.335,0,26.7V11.622c0-5.237,2.989-8.6,7.866-8.958V1.25a1.19,1.19,0,1,1,2.377,0V2.633h10.42V1.25a1.189,1.189,0,1,1,2.375,0V2.664A8.319,8.319,0,0,1,28.632,5.1a9.239,9.239,0,0,1,2.258,6.53v15.2c0,5.553-3.352,9-8.747,9ZM2.377,26.7c0,4.275,2.261,6.63,6.369,6.63h13.4c4.107,0,6.37-2.31,6.37-6.5V14.841H2.377ZM28.514,12.34v-.718A6.641,6.641,0,0,0,26.95,6.864a5.976,5.976,0,0,0-3.912-1.693V6.735a1.189,1.189,0,1,1-2.375,0v-1.6H10.242v1.6a1.19,1.19,0,1,1-2.377,0V5.171c-3.549.313-5.489,2.575-5.489,6.451v.718ZM21.3,26.577a1.214,1.214,0,0,1,1.18-1.249H22.5A1.251,1.251,0,1,1,21.3,26.577Zm-7.029,0a1.214,1.214,0,0,1,1.18-1.249h.014a1.251,1.251,0,1,1-1.195,1.249Zm-7.046,0a1.215,1.215,0,0,1,1.182-1.249h.014a1.251,1.251,0,1,1-1.2,1.249ZM21.3,20.1a1.215,1.215,0,0,1,1.18-1.251H22.5A1.252,1.252,0,1,1,21.3,20.1Zm-7.029,0a1.215,1.215,0,0,1,1.18-1.251h.014A1.252,1.252,0,1,1,14.273,20.1Zm-7.046,0a1.217,1.217,0,0,1,1.182-1.251h.014a1.251,1.251,0,1,1-1.2,1.251Z" fill="#2ed573"></path>
						</svg>