<svg xmlns="http://www.w3.org/2000/svg" fill="#5f5f5f" viewBox="0 0 739 344.219">
        <g transform="translate(-168 -159)">
            <path d="M4277,469l-35,10-.038,46.04s-.644,12.671-15.155,12.671c-15.7,0-14.92-12.671-14.92-12.671V479.118h-35.858V525.04s1.019,12.876-14.45,12.876-14.7-12.876-14.7-12.876V479.118H4111.02V525.04s.318,13.109-24.273,13.109c-25.855,0-25.813-13.109-25.813-13.109V469.17h-37.015v55.87s-.108,6.226-3.954,9.523-11.431,3.664-11.431,3.664h-84.325l-20.014,20.015V469.17h-36.2V587.985l-19.33,19.33,25.895,25.895,29.638-29.638V572.779h104.34s10.642-.012,19.315-3.575,15.378-10.68,15.378-10.68a34.648,34.648,0,0,0,16.578,11.905c10.88,3.564,14.468,2.334,26.941,2.571,12.614-.157,12.813.615,23.288-2.571a56.489,56.489,0,0,0,18.612-10.392,42.57,42.57,0,0,0,14.609,9.982c8.453,3.186,19.2,2.761,19.2,2.761s9.581.2,17.634-2.761a49.155,49.155,0,0,0,14.577-9.092,42.813,42.813,0,0,0,14.28,9.092c8.253,2.963,9.02,2.828,18.731,2.761s18.2,1.883,34.005-13.452a49.579,49.579,0,0,0,15.2-34.287Z"
                  transform="translate(-3370 -250)"/>
            <rect width="36" height="36" transform="translate(498 159)"/>
            <rect width="36" height="36" transform="translate(618 347)"/>
            <path d="M3841,409.025h-35.98l-.031,114.023s1.207,7.253-7,11.716c-5.884,3.316-16.336,3.525-16.336,3.525l-34.175-.07-20.047,20.031.016-89.078H3691.26L3691.229,588l-19.344,19.313,25.922,25.906,29.625-29.625.016-30.812h65.361s17.6-.51,33.153-15.884c15.486-16,14.91-33.867,14.91-33.867Z"
                  transform="translate(-3367.004 -250.009)"/>
            <path d="M3657.909,469.262l-36.659-.106-.031,115.991s-.755,6.012-4.126,9.292-8.788,3.771-8.788,3.771H3579.61s-6.907-.491-10.559-3.771-3.821-9.3-3.821-9.3L3565.5,529H3529l.022,52.672a54.781,54.781,0,0,0,15.336,36.476,49.256,49.256,0,0,0,35.255,14.816h27.845s18.5,1.476,34.513-14.57a53.928,53.928,0,0,0,15.943-35.173Z"
                  transform="translate(-3357.698 -250)"/>
            <rect width="36" height="36" transform="translate(208 219)"/>
            <g transform="translate(20.991 638.909)">
                <path d="M483.775-189.183c-.663.751-.707,2.827-.618,24.692l.133,23.941,1.1,1.06c1.988,1.988,8.084,3.4,15.46,3.666,9.674.353,14.489-1.1,18.6-5.477,3.048-3.269,4.02-6.184,4.285-13.031.4-11.4-2.871-17.978-10.16-20.54a25.178,25.178,0,0,0-11.971-.4c-3.49.8-8,3.313-9.365,5.257-.618.839-.663,0-.663-8.79,0-8.879-.088-9.806-.8-10.469C488.59-190.331,484.791-190.287,483.775-189.183Zm26.238,21.291c3.578,1.944,5.3,5.919,5.3,12.1,0,5.168-.928,7.907-3.49,10.425a10.721,10.721,0,0,1-4.285,2.65c-2.871.839-8.834.707-13.3-.265l-3.666-.8v-17.713l1.193-1.679a17.3,17.3,0,0,1,7.333-5.477C502.063-169.614,507.629-169.217,510.014-167.892Z"
                      transform="translate(-187.644 0)"/>
                <path d="M1660.079-188.9a4.454,4.454,0,0,0-.221,5.654c1.678,2.12,6.626,1.944,8.172-.265a4.58,4.58,0,0,0-.442-5.389c-.883-.928-1.5-1.1-3.755-1.1S1660.962-189.823,1660.079-188.9Z"
                      transform="translate(-844.083 -0.022)"/>
                <path d="M159.55-180.517c-4.2.618-6.847,1.767-9.011,3.931-2.3,2.341-3.092,4.417-3.092,8.26,0,4.771,1.634,8,5.257,10.292,2.915,1.9,4.771,2.474,14.4,4.461,4.682.972,9.188,2.032,9.983,2.385,3.49,1.458,5.257,3.8,5.257,6.891a5.652,5.652,0,0,1-3.534,5.433c-1.9.928-2.518.972-16.432,1.1-16.255.133-15.681,0-15.2,3.4.53,3.445.309,3.4,16.7,3.225,13.208-.177,14.489-.265,17.227-1.148,3.71-1.237,7.023-4.064,8.172-7.068a19.882,19.882,0,0,0,.177-10.425,11.966,11.966,0,0,0-2.164-3.445c-3-3.357-6.8-4.859-17.051-6.758-8.26-1.59-11.4-2.606-13.252-4.329a5.426,5.426,0,0,1,1.06-8.923c1.458-.839,2.429-.883,13.914-1.016,6.8-.044,12.81-.221,13.384-.309.839-.221.972-.53.972-2.429,0-1.634-.221-2.429-.883-3.092-.839-.839-1.414-.883-12.236-.839C166.927-180.87,160.787-180.694,159.55-180.517Z"
                      transform="translate(0 -5.088)"/>
                <path d="M801.6-180.372l-1.1.574v18.95c0,14.93.132,19.436.618,21.114a12.488,12.488,0,0,0,7.023,7.421c2.341.928,3.357,1.016,14.8,1.193,14.135.177,14.179.177,14.709-3.225.486-3.357.663-3.313-11.529-3.313-11.485,0-13.914-.353-15.946-2.253-2.164-2.032-2.385-4.02-2.385-22.528v-17.139l-.972-.663A5.964,5.964,0,0,0,801.6-180.372Z"
                      transform="translate(-364.828 -5.1)"/>
                <path d="M327.357-157.351c-3.666.883-5.522,1.811-7.863,4.02-4.064,3.8-5.61,8.7-5.257,16.83.353,9.32,2.739,14.091,8.437,17.006,3,1.546,3.092,1.546,8.614,1.546,6.758-.044,9.365-.883,13.031-4.241,2.562-2.341,2.915-2.253,2.915.751,0,2.827,3.18,4.285,5.654,2.562l.972-.663v-33.394l-1.06-.972C349.8-156.732,333.851-158.9,327.357-157.351Zm14.886,6.67c5.036,1.06,4.55.088,4.55,9.63,0,9.365-.044,9.585-3.18,12.545-3.092,3-5.212,3.843-10.071,4.064-3.931.177-4.329.088-6.626-1.1a6.971,6.971,0,0,1-3.755-3.843c-1.148-2.3-1.325-3.136-1.458-7.112-.309-7.6,1.5-11.529,6.317-13.738,1.855-.883,2.915-1.06,6.714-1.06A45.15,45.15,0,0,1,342.244-150.681Z"
                      transform="translate(-93.333 -17.962)"/>
                <path d="M960.92-157.131c-9.144,2.385-13.208,9.1-12.678,20.849.4,9.276,3.931,14.356,11.794,16.83,2.385.8,4.329.972,11.794,1.193,10.2.221,10.866.088,11.308-2.827.53-3.18.265-3.269-7.554-3.269-10.734,0-14.356-.883-17.183-4.152-1.325-1.5-2.65-4.506-2.209-4.991.133-.133,6.493-1.016,14.091-1.944,7.6-.972,14.268-1.9,14.8-2.164,1.369-.574,1.678-2.253,1.1-6.449-1.016-7.73-4.594-11.662-11.971-13.252A34.434,34.434,0,0,0,960.92-157.131Zm11.043,5.875a8.952,8.952,0,0,1,6.228,4.506c1.148,2.606,1.1,4.2-.133,4.461-1.281.265-21.2,2.915-22,2.915-.839,0-.265-4.02,1.016-6.8a8.738,8.738,0,0,1,5.742-4.947A21.871,21.871,0,0,1,971.963-151.257Z"
                      transform="translate(-447.283 -17.96)"/>
                <path d="M1117.357-157.351c-3.666.883-5.522,1.811-7.863,4.02-4.064,3.8-5.61,8.7-5.256,16.83.353,9.32,2.739,14.091,8.437,17.006,3,1.546,3.092,1.546,8.614,1.546,6.758-.044,9.365-.883,13.031-4.241,2.562-2.341,2.915-2.253,2.915.751,0,2.827,3.18,4.285,5.654,2.562l.972-.663v-33.394l-1.06-.972C1139.8-156.732,1123.851-158.9,1117.357-157.351Zm14.886,6.67c5.036,1.06,4.55.088,4.55,9.63,0,9.365-.044,9.585-3.18,12.545-3.092,3-5.213,3.843-10.071,4.064-3.931.177-4.329.088-6.626-1.1a6.971,6.971,0,0,1-3.755-3.843c-1.148-2.3-1.325-3.136-1.458-7.112-.309-7.6,1.5-11.529,6.317-13.738,1.855-.883,2.915-1.06,6.714-1.06A45.152,45.152,0,0,1,1132.244-150.681Z"
                      transform="translate(-534.371 -17.962)"/>
                <path d="M1292.507-157.344a14.828,14.828,0,0,0-9.144,4.2c-2.385,2.164-2.739,2.076-2.739-.839a4.2,4.2,0,0,0-.574-2.164c-.707-.972-3.269-1.413-4.815-.8l-1.237.486V-138c0,21.026-.177,19.966,3.622,19.966,3.49,0,3.445.088,3.445-13.3v-11.662l1.679-2.209c3.269-4.329,7.024-5.963,13.693-5.963,3.931,0,4.505-.353,4.505-2.695C1300.943-157.256,1298.779-158.139,1292.507-157.344Z"
                      transform="translate(-629.17 -18.101)"/>
                <path d="M1421.563-157.3a16.329,16.329,0,0,0-7.465,3.843c-2.076,1.855-2.474,1.723-2.474-.883a2.98,2.98,0,0,0-.8-1.944c-.972-.883-4.505-1.016-5.3-.221-.4.4-.53,5.168-.53,18.685,0,20.673-.177,19.657,3.622,19.657,3.49,0,3.446.133,3.446-13.782V-144.1l2.164-2.253c3.269-3.4,6.052-4.638,10.866-4.859,3.49-.133,4.2-.044,5.963.883,3.666,1.9,3.711,2.164,3.975,17.492.221,12.633.265,13.428,1.06,14.047,1.325.928,4.506.8,5.566-.265.839-.839.883-1.458.883-12.943,0-6.582-.221-13.3-.486-14.886-.884-5.61-3.887-9.055-9.011-10.38A28.728,28.728,0,0,0,1421.563-157.3Z"
                      transform="translate(-702.304 -17.963)"/>
                <path d="M1777.507-157.344a14.828,14.828,0,0,0-9.144,4.2c-2.385,2.164-2.739,2.076-2.739-.839a4.2,4.2,0,0,0-.574-2.164c-.707-.972-3.269-1.413-4.815-.8l-1.237.486V-138c0,21.026-.177,19.966,3.622,19.966,3.49,0,3.445.088,3.445-13.3v-11.662l1.679-2.209c3.269-4.329,7.024-5.963,13.693-5.963,3.931,0,4.505-.353,4.505-2.695C1785.943-157.256,1783.779-158.139,1777.507-157.344Z"
                      transform="translate(-899.934 -18.101)"/>
                <path d="M644.706-155.382a5.028,5.028,0,0,0-.4,2.783l.132,2.12,12.28.221c11.529.221,12.368.265,12.943,1.06,1.767,2.429.265,3.578-12.236,9.674-14.224,6.891-15.681,8.26-15.372,14.533.221,3.71.928,4.991,3.711,6.626,1.723,1.016,2.076,1.016,15.637,1.148,7.642.088,14.356.044,14.886-.088,1.369-.353,2.3-3.313,1.59-4.9l-.53-1.1H664.186c-11.176,0-13.3-.088-14.135-.707a2.8,2.8,0,0,1-.044-4.2c.53-.53,5.831-3.313,11.75-6.184,11.617-5.654,14.312-7.553,15.151-10.513,1.193-4.329-.221-8.437-3.534-10.115-1.9-.928-2.341-.972-15.063-.972C647.533-156,645.1-155.867,644.706-155.382Z"
                      transform="translate(-276.353 -19.003)"/>
                <path d="M1662.528-155.47c-.4.4-.53,5.168-.53,18.685,0,20.673-.177,19.657,3.622,19.657,3.578,0,3.446.883,3.446-19.7,0-13.517-.132-18.243-.53-18.641a6.072,6.072,0,0,0-3-.53A6.073,6.073,0,0,0,1662.528-155.47Z"
                      transform="translate(-845.781 -19.003)"/>
                <path d="M1566.943-85.315c-1.59.707-1.944,1.414-1.944,4.02s1.414,3.755,4.638,3.755c3.269,0,4.638-1.148,4.638-3.8,0-2.562-.53-3.49-2.253-4.108A6.722,6.722,0,0,0,1566.943-85.315Z"
                      transform="translate(-791.63 -58.15)"/>
            </g>
        </g>
</svg>