<svg xmlns="http://www.w3.org/2000/svg" width="34" height="34" viewBox="0 0 34 34">
							<path d="M7.135,34A6.852,6.852,0,0,1,.367,27.643l-.323-4.32A1.289,1.289,0,0,1,1.22,21.935a1.3,1.3,0,0,1,1.37,1.192l.321,4.32a4.28,4.28,0,0,0,4.223,3.97h19.73a4.278,4.278,0,0,0,4.223-3.97l.323-4.32a1.307,1.307,0,0,1,1.369-1.192,1.289,1.289,0,0,1,1.176,1.387l-.323,4.32A6.854,6.854,0,0,1,26.865,34Zm8.589-8.721v-3.1A32.082,32.082,0,0,1,.631,18.046,1.3,1.3,0,0,1,0,16.933V10.991A6.52,6.52,0,0,1,6.48,4.444H9.812A5.066,5.066,0,0,1,14.806,0h4.389a5.066,5.066,0,0,1,4.993,4.444h3.349A6.521,6.521,0,0,1,34,11.008v5.925a1.3,1.3,0,0,1-.631,1.113,32.1,32.1,0,0,1-15.093,4.137v3.1a1.276,1.276,0,1,1-2.552,0ZM2.552,10.991v5.188A30.422,30.422,0,0,0,16.914,19.62l.086,0,.085,0a30.471,30.471,0,0,0,14.364-3.441V11.008a3.949,3.949,0,0,0-3.911-3.979H6.48A3.949,3.949,0,0,0,2.552,10.991Zm19.04-6.546a2.493,2.493,0,0,0-2.4-1.86H14.806a2.493,2.493,0,0,0-2.4,1.86Z" fill="#2ed573"></path>
						</svg>