<svg xmlns="http://www.w3.org/2000/svg" width="45" height="45" x="0" y="0" viewBox="0 0 64 64">
								<circle cx="29" cy="14" r="2" fill="#ffffff" data-original="#000000"></circle>
								<path d="m52 21h-6v-9c0-2.757-2.243-5-5-5h-14c-2.757 0-5 2.243-5 5v7h-10c-2.757 0-5 2.243-5 5v14c0 2.757 2.243 5 5 5h6v9c0 2.757 2.243 5 5 5h14c2.757 0 5-2.243 5-5v-7h10c2.757 0 5-2.243 5-5v-14c0-2.757-2.243-5-5-5zm-43 17v-14c0-1.654 1.346-3 3-3h22c1.323 0 1.324-2 0-2h-10v-7c0-1.654 1.346-3 3-3h14c1.654 0 3 1.346 3 3v16c0 1.654-1.346 3-3 3h-18c-2.757 0-5 2.243-5 5v5h-6c-1.654 0-3-1.346-3-3zm46 2c0 1.654-1.346 3-3 3h-22c-1.323 0-1.324 2 0 2h10v7c0 1.654-1.346 3-3 3h-14c-1.654 0-3-1.346-3-3v-10-6c0-1.654 1.346-3 3-3h18c2.757 0 5-2.243 5-5v-5h6c1.654 0 3 1.346 3 3z" fill="#ffffff" data-original="#000000"></path>
								<circle cx="35" cy="50" r="2" fill="#ffffff" data-original="#000000"></circle>
							</svg>