<svg xmlns="http://www.w3.org/2000/svg" width="45" height="45" x="0" y="0" viewBox="0 0 511.999 511.999">
								<path d="M502.044,227.555l-62.141-62.141c13.191-3.238,25.727-9.909,36.022-20.211c15.054-15.047,22.615-34.848,22.61-54.566
                            c0.007-19.719-7.556-39.524-22.603-54.566c-15.048-15.061-34.854-22.615-54.573-22.609c-19.724-0.007-39.524,7.556-54.566,22.609
                            c-10.3,10.288-16.973,22.824-20.216,36.01L284.448,9.953c-6.639-6.634-15.42-9.96-24.099-9.953
                            c-8.685-0.007-17.477,3.32-24.106,9.953l-91.383,91.402c-3.699,3.699-3.699,9.682,0,13.381l10.945,10.951
                            c2.241,2.241,5.435,3.213,8.546,2.594c2.96-0.588,5.965-0.884,8.976-0.884c11.778,0.013,23.461,4.463,32.474,13.45
                            c8.976,8.981,13.425,20.666,13.438,32.443c-0.012,11.796-4.463,23.506-13.45,32.499c-8.988,8.981-20.684,13.438-32.475,13.444
                            c-11.784-0.007-23.486-4.463-32.468-13.444c-8.994-9.001-13.444-20.684-13.45-32.468c-0.007-3.017,0.29-6.016,0.883-8.956
                            c0.618-3.105-0.359-6.318-2.588-8.553l-10.957-10.951c-3.698-3.693-9.689-3.693-13.388,0.007L9.957,236.26
                            c-6.634,6.627-9.96,15.413-9.948,24.099c-0.013,8.679,3.314,17.472,9.953,24.099l62.127,62.127
                            c-13.191,3.245-25.721,9.916-36.022,20.223c-15.047,15.034-22.61,34.841-22.596,54.56c-0.013,19.712,7.542,39.524,22.603,54.573
                            c15.047,15.054,34.854,22.609,54.578,22.596c19.712,0.012,39.512-7.556,54.548-22.603c10.3-10.3,16.978-22.836,20.216-36.022
                            l62.127,62.134c6.641,6.634,15.42,9.96,24.106,9.953c8.685,0.007,17.465-3.32,24.092-9.948l91.39-91.39
                            c3.693-3.698,3.693-9.689,0-13.388l-10.945-10.951c-2.234-2.234-5.428-3.206-8.54-2.594c-2.96,0.593-5.971,0.883-8.988,0.883
                            c-11.784-0.012-23.474-4.456-32.462-13.438c-8.988-8.994-13.438-20.684-13.444-32.474c0.007-11.784,4.463-23.486,13.444-32.481
                            c8.988-8.981,20.684-13.432,32.481-13.444c11.784,0.012,23.481,4.469,32.475,13.45c8.981,8.994,13.432,20.684,13.438,32.468
                            c0.007,3.004-0.297,6.016-0.884,9.001c-0.606,3.105,0.36,6.274,2.601,8.514l10.945,10.951c1.755,1.761,4.198,2.771,6.697,2.771
                            c2.493,0,4.929-1.009,6.697-2.771l91.395-91.402c6.641-6.634,9.96-15.42,9.948-24.099
                            C511.997,242.968,508.671,234.183,502.044,227.555z M488.649,262.372l-84.693,84.687l-0.903-0.903
                            c0.284-2.48,0.48-4.973,0.48-7.48c0.007-16.562-6.35-33.213-18.993-45.855s-29.3-19.005-45.862-18.998
                            c-16.569-0.007-33.225,6.35-45.868,18.993c-12.649,12.649-19.005,29.306-18.998,45.875c-0.007,16.562,6.35,33.22,18.998,45.862
                            c12.637,12.643,29.293,18.998,45.85,18.986c2.5,0,4.993-0.183,7.485-0.473l0.903,0.903l-84.693,84.687
                            c-2.941,2.941-6.772,4.393-10.705,4.406c-3.939-0.013-7.77-1.464-10.718-4.406l-75.989-75.995
                            c-2.733-2.733-6.823-3.534-10.383-2.026c-3.553,1.496-5.832,4.993-5.782,8.849c0.013,0.733,0.025,1.376,0.025,1.912
                            c-0.012,14.946-5.624,29.767-16.998,41.153c-11.393,11.387-26.232,17.049-41.153,17.054c-14.946-0.007-29.798-5.655-41.192-17.049
                            c-11.399-11.399-17.042-26.245-17.054-41.178c0.012-14.934,5.669-29.78,17.049-41.166c11.387-11.387,26.2-16.985,41.153-16.998
                            c0.588,0,1.181,0.012,1.767,0.032c3.882,0.113,7.436-2.146,8.976-5.713c1.54-3.567,0.745-7.701-1.995-10.446l-76.001-75.995
                            c-2.941-2.948-4.393-6.779-4.406-10.711c0.012-3.939,1.464-7.77,4.399-10.711l84.699-84.693l0.896,0.896
                            c-0.284,2.493-0.48,4.987-0.48,7.485c-0.007,16.562,6.356,33.213,18.998,45.855c12.637,12.643,29.293,19.005,45.862,18.993
                            c16.569,0.012,33.225-6.35,45.862-18.993c12.655-12.655,19.011-29.325,18.998-45.894c0.012-16.562-6.356-33.2-18.986-45.83
                            c-12.655-12.649-29.306-19.011-45.862-18.998c-2.5,0-4.993,0.189-7.485,0.48l-0.903-0.903l84.699-84.699
                            c2.941-2.935,6.772-4.393,10.711-4.406c3.927,0.012,7.763,1.464,10.711,4.412l75.995,75.995c2.751,2.752,6.943,3.541,10.497,1.976
                            c3.56-1.559,5.819-5.169,5.662-9.057c-0.025-0.511-0.037-1.067-0.037-1.666c0.019-14.94,5.624-29.76,16.998-41.147
                            c11.393-11.387,26.239-17.049,41.172-17.054c14.928,0.007,29.78,5.655,41.172,17.054s17.049,26.239,17.054,41.172
                            c-0.007,14.928-5.662,29.78-17.054,41.172c-11.393,11.375-26.207,16.973-41.153,16.985c-0.593,0-1.181-0.007-1.761-0.025
                            c-3.882-0.113-7.436,2.146-8.976,5.713c-1.54,3.567-0.751,7.701,1.995,10.446l76.001,76.001c2.941,2.941,4.399,6.772,4.412,10.711
                            C493.049,255.593,491.591,259.424,488.649,262.372z" fill="#ffffff" data-original="#000000"></path>
							</svg>