<svg xmlns="http://www.w3.org/2000/svg" width="34" height="34" viewBox="0 0 34 34">
                            <path d="M9.628,34C3.869,34,0,29.959,0,23.943V10.057C0,4.041,3.869,0,9.628,0h14.74C30.129,0,34,4.041,34,10.057V23.943C34,29.959,30.128,34,24.364,34ZM2.551,10.057V23.943c0,4.561,2.779,7.508,7.078,7.508H24.364c4.305,0,7.087-2.947,7.087-7.508V10.057c0-4.559-2.78-7.506-7.082-7.506H9.628C5.329,2.551,2.551,5.5,2.551,10.057ZM15.715,23.8V17a1.275,1.275,0,0,1,2.551,0v6.8a1.275,1.275,0,0,1-2.551,0Zm-.425-13.255a1.693,1.693,0,0,1,1.692-1.7H17a1.7,1.7,0,1,1-1.709,1.7Z" fill="#2ed573"></path>
                        </svg>