<svg xmlns="http://www.w3.org/2000/svg" width="34" height="34" viewBox="0 0 34 34">
							<path d="M0,27.688c0-6.355,9.724-6.355,12.92-6.355,5.546,0,12.918.655,12.918,6.32C25.838,34,16.115,34,12.92,34,9.387,34,0,34,0,27.688Zm2.553,0c0,2.412,3.487,3.635,10.367,3.635s10.365-1.236,10.365-3.671c0-2.418-3.487-3.643-10.365-3.643C8.191,24.01,2.553,24.647,2.553,27.688ZM29.26,28.5A1.358,1.358,0,0,1,30,26.779c1.446-.575,1.446-1.277,1.446-1.575,0-1.012-1.143-1.705-3.394-2.055a1.334,1.334,0,0,1-1.075-1.522A1.306,1.306,0,0,1,28.43,20.5c4.605.723,5.57,2.958,5.57,4.7,0,1.3-.536,3.06-3.094,4.075a1.218,1.218,0,0,1-.453.088A1.28,1.28,0,0,1,29.26,28.5ZM12.92,18.322a8.968,8.968,0,0,1-8.74-9.16A8.969,8.969,0,0,1,12.92,0a8.967,8.967,0,0,1,8.737,9.162,9.279,9.279,0,0,1-2.53,6.461,8.445,8.445,0,0,1-6.151,2.7ZM6.733,9.162a6.347,6.347,0,0,0,6.187,6.484h.052a5.977,5.977,0,0,0,4.345-1.908,6.567,6.567,0,0,0,1.789-4.571,6.351,6.351,0,0,0-6.186-6.49A6.349,6.349,0,0,0,6.733,9.162ZM23.382,15.14a1.329,1.329,0,0,1,1.086-1.511,4.5,4.5,0,0,0,3.731-4.5,4.471,4.471,0,0,0-3.63-4.486,1.333,1.333,0,0,1-1.054-1.538,1.286,1.286,0,0,1,1.466-1.1A7.1,7.1,0,0,1,30.75,9.135a7.155,7.155,0,0,1-5.927,7.145,1.278,1.278,0,0,1-1.441-1.14Z" fill="#2ed573"></path>
						</svg>