<svg xmlns="http://www.w3.org/2000/svg" width="35.475" height="27.774" viewBox="0 0 35.475 27.774">
							<path d="M7.057,27.774A7.191,7.191,0,0,1,.024,21.066C.018,20.99,0,20.788.007,7.564a7.254,7.254,0,0,1,1.8-5.108A7.047,7.047,0,0,1,6.846.008C6.907,0,7.529,0,8.693,0c2.011,0,5.245.006,7.842.011l2.241,0C18.941,0,19.11,0,19.277,0a7.237,7.237,0,0,1,7.1,6.742c0,.041.005.273.008.7L29.916,4.4a3.243,3.243,0,0,1,3.614-.464,3.57,3.57,0,0,1,1.945,3.238l-.02,13.166a3.568,3.568,0,0,1-1.948,3.233A3.247,3.247,0,0,1,29.9,23.1L26.39,20.07q0,.063,0,.126a7.337,7.337,0,0,1-1.805,5.129,7.042,7.042,0,0,1-5.042,2.438c-.058,0-.622.006-1.677.006-2.156,0-5.911-.01-8.653-.016l-1.611,0c-.189.015-.366.023-.541.023Zm4.492-2.7h.014c2.556,0,5.085.008,6.57.008.812,0,1.244,0,1.32,0A4.531,4.531,0,0,0,22.7,23.507a4.583,4.583,0,0,0,1.134-3.225c0-.019,0-.039,0-.06,0-3,0-12.844-.009-13.314a4.606,4.606,0,0,0-4.578-4.222c-.126,0-.254.006-.38.016l-2.636,0c-2.995,0-6.221-.01-7.977-.01-.742,0-1.231,0-1.313,0A4.545,4.545,0,0,0,3.689,4.27,4.607,4.607,0,0,0,2.559,7.5c0,8.566,0,13.071.014,13.389a4.583,4.583,0,0,0,4.561,4.189c.124,0,.25,0,.374-.015Zm19.965-4.051a.785.785,0,0,0,.9.114.863.863,0,0,0,.486-.8l.02-13.168a.869.869,0,0,0-.484-.806.8.8,0,0,0-.9.118l-5.146,4.43q0,2.234,0,5.685Z" fill="#2ed573"></path>
						</svg>